# xmcd
#
# Track frame offsets:
#	182
#	13707
#	31187
#	47612
#	59525
#	73732
#	85960
#	100880
#	116670
#	127765
#	142495
#	156000
#
# Disc length: 2324 seconds
#
# Revision: 3
# Processed by: cddbd v1.5.2PL0 Copyright (c) Steve Scherf et al.
# Submitted via: EasyCDDAExtractor 16.0.6.1
#
DISCID=a409120c
DTITLE=Jean-Claude Borelli - The 12 Eternal Blues
DYEAR=1988
DGENRE=Blues
TTITLE0=West and Blues
TTITLE1=Bluberry Hill
TTITLE2=Sweet Georgia Brown
TTITLE3=On the Sunny Side of the Street
TTITLE4=Basin Sreet Blues
TTITLE5=How Hight the Moon
TTITLE6=Saint Louis Blues
TTITLE7=Muskrat Ramble
TTITLE8=Saint James Infimary
TTITLE9=I Get Ideas
TTITLE10=Tin Roof Blues
TTITLE11=Red Skelton Blues
EXTD=YEAR: 1988
EXTT0=
EXTT1=
EXTT2=
EXTT3=
EXTT4=
EXTT5=
EXTT6=
EXTT7=
EXTT8=
EXTT9=
EXTT10=
EXTT11=
PLAYORDER=
